<?xml version="1.0" standalone="no"?>
<!DOCTYPE svg PUBLIC "-//W3C//DTD SVG 20010904//EN"
 "http://www.w3.org/TR/2001/REC-SVG-20010904/DTD/svg10.dtd">
<svg version="1.0" xmlns="http://www.w3.org/2000/svg"
 width="1206.000000pt" height="1206.000000pt" viewBox="0 0 1206.000000 1206.000000"
 preserveAspectRatio="xMidYMid meet">

<g transform="translate(0.000000,1206.000000) scale(0.100000,-0.100000)"
fill="#000000" stroke="none">
<path d="M5670 11903 c-30 -2 -127 -10 -215 -19 -2308 -226 -4275 -1799 -5010
-4008 -136 -407 -221 -806 -272 -1276 -14 -131 -18 -248 -18 -570 0 -423 8
-550 56 -865 350 -2337 2073 -4247 4364 -4835 276 -71 547 -119 880 -156 193
-21 733 -30 955 -15 1026 70 1984 390 2835 948 1222 802 2100 2016 2474 3423
129 487 191 972 191 1500 0 280 -10 446 -41 710 -191 1619 -1080 3114 -2425
4076 -889 635 -1923 1007 -3014 1084 -131 9 -622 11 -760 3z m785 -394 c1144
-89 2208 -523 3105 -1269 164 -136 538 -511 674 -675 288 -348 498 -665 695
-1055 311 -613 490 -1227 568 -1950 25 -231 25 -827 0 -1050 -28 -247 -40
-330 -49 -330 -10 0 -137 112 -313 276 -606 567 -1169 1289 -1620 2079 -53 94
-100 174 -105 178 -11 13 -127 -30 -203 -74 -87 -52 -171 -131 -319 -301 -203
-233 -328 -318 -517 -349 l-71 -12 -127 86 c-198 133 -331 245 -549 462 -224
223 -291 299 -649 730 -137 165 -312 372 -390 460 -228 257 -584 592 -604 569
-4 -5 -18 -38 -31 -74 -54 -153 -160 -334 -300 -509 -74 -93 -343 -387 -360
-393 -5 -2 -124 -115 -266 -253 -282 -273 -302 -300 -401 -505 -33 -69 -72
-140 -85 -158 -85 -110 -361 -373 -488 -463 -161 -115 -273 -159 -404 -159
-189 0 -299 59 -686 364 -349 276 -399 311 -414 295 -7 -8 -103 -133 -212
-279 -561 -751 -1668 -2190 -1685 -2190 -7 0 -10 14 -44 230 -49 316 -60 460
-59 845 0 384 11 540 59 850 138 880 496 1728 1029 2438 214 285 528 623 788
849 1120 973 2562 1451 4033 1337z m-419 -2800 c23 -25 9 -60 -64 -162 -119
-165 -123 -219 -11 -149 48 31 87 94 132 214 32 82 54 118 76 118 33 0 108
-58 181 -141 110 -124 164 -176 206 -197 l37 -19 -46 -12 c-51 -12 -72 -38
-63 -77 10 -38 118 -146 221 -219 61 -43 95 -74 95 -86 0 -28 -22 -69 -36 -69
-7 0 -39 33 -71 73 -66 83 -89 104 -121 113 -39 11 -36 -3 11 -57 128 -146
151 -275 101 -569 -31 -186 -29 -260 10 -345 l26 -58 -39 -52 c-76 -101 -161
-162 -416 -299 -99 -54 -184 -101 -188 -105 -4 -4 -37 -122 -73 -262 -162
-633 -323 -1126 -452 -1384 -32 -65 -119 -205 -127 -205 -6 0 5 68 21 133 8
32 38 111 66 175 70 161 88 222 94 327 l5 90 -20 -53 c-44 -117 -170 -307
-266 -402 l-56 -55 -19 25 c-20 25 -20 25 -20 3 0 -13 6 -23 13 -23 8 0 35
-44 60 -97 49 -103 58 -157 35 -208 -25 -54 -52 -20 -84 108 -9 34 -21 65 -28
69 -39 26 -100 -13 -117 -74 -6 -23 -15 -108 -19 -189 -5 -88 -14 -157 -22
-172 l-13 -25 -84 64 c-90 67 -188 124 -215 124 -29 0 -17 -38 34 -104 27 -37
46 -66 42 -66 -18 0 -119 110 -160 174 -25 38 -87 157 -139 264 -113 233 -173
330 -253 406 -33 32 -60 65 -60 74 0 31 67 150 142 254 126 173 132 185 119
229 -15 51 -49 89 -141 159 -98 75 -121 111 -128 201 l-5 68 -139 -70 c-77
-39 -167 -94 -200 -121 l-60 -50 56 108 c198 386 473 740 1226 1579 423 471
688 784 840 991 47 65 70 72 106 33z m3210 -1405 c54 -269 114 -450 332 -995
72 -179 153 -396 180 -481 49 -149 117 -407 110 -414 -2 -1 -46 29 -98 68
-550 411 -914 874 -979 1242 -45 249 61 476 292 629 100 66 131 85 134 83 1
-1 14 -60 29 -132z m-6579 -181 c67 -33 142 -110 241 -248 146 -202 239 -264
401 -266 l60 -1 8 -37 c14 -68 7 -272 -11 -341 -49 -189 -136 -303 -429 -565
-130 -115 -220 -238 -264 -355 l-21 -54 -7 54 c-11 83 -28 110 -70 110 -44 0
-117 -66 -273 -250 -125 -147 -241 -270 -285 -302 l-27 -20 -44 26 c-94 55
-133 132 -122 238 3 32 30 126 60 208 78 213 87 289 42 339 -9 10 -16 22 -16
28 0 20 45 40 98 45 62 6 94 26 140 91 l33 46 -43 11 c-75 20 -86 32 -81 87 4
41 0 58 -30 115 -32 62 -34 68 -18 82 22 20 67 36 102 36 45 0 85 25 119 74
16 25 30 47 30 49 0 2 -19 7 -42 10 -55 7 -82 38 -72 81 10 50 59 140 166 306
115 177 189 311 214 388 l17 54 36 -7 c20 -4 60 -18 88 -32z m5717 -697 c435
-328 1063 -960 1336 -1346 l25 -35 -40 31 c-22 17 -105 74 -185 126 -149 97
-253 192 -279 255 -12 31 -13 31 -71 26 -73 -7 -111 14 -174 95 -79 103 -104
113 -130 51 l-14 -32 -14 24 c-8 13 -66 116 -127 229 -177 322 -324 529 -468
659 -84 76 -22 39 141 -83z"/>
<path d="M4761 6289 c-18 -60 -73 -114 -180 -176 -53 -31 -115 -76 -139 -100
-40 -41 -41 -45 -27 -67 33 -50 103 -63 165 -31 76 39 170 168 210 286 23 67
25 100 8 117 -19 19 -24 15 -37 -29z"/>
</g>
</svg>
